<svg width="159" height="124" viewBox="0 0 159 124" fill="none" xmlns="http://www.w3.org/2000/svg">
<path d="M68.2424 62.061L68.2427 62.0598L67.2331 64.8496L68.2424 62.061Z" fill="#EAE2E2"/>
<path d="M73.4335 68.1176L72.3211 68.1121L73.4335 68.1176Z" fill="#EAE2E2"/>
<path d="M73.1475 72.2834H73.1484L66.485 72.3029L73.1475 72.2834Z" fill="#EAE2E2"/>
<path d="M74.5443 68.1227L73.4316 68.1174L74.5443 68.1227Z" fill="#EAE2E2"/>
<path d="M73.7316 71.9294L74.8921 68.4771L73.7316 71.9302V71.9294Z" fill="#EAE2E2"/>
<path d="M98.2654 56.0305L96.1034 63.958L98.2654 56.0305Z" fill="#EAE2E2"/>
<path d="M92.7073 56.0305L91.0654 61.9527L92.7073 56.03V56.0305Z" fill="#EAE2E2"/>
<path d="M97.8949 55.6738H93.2709C93.0144 55.6738 92.7597 55.8344 92.7054 56.0298L91.0635 61.9525L89.422 67.8755C89.3679 68.0709 89.1136 68.2312 88.8568 68.2312H86.0516H85.5842C82.3465 68.2312 82.7207 66.4843 83.3843 64.0915C83.3908 64.0676 83.3974 64.0441 83.4036 64.0194L83.4762 63.7176C83.4812 63.6982 83.4859 63.6788 83.4899 63.6612L83.638 63.047L83.7964 62.389C83.8446 62.1906 83.9175 61.9005 83.9657 61.7181L84.7113 58.8746L85.4585 56.0311C85.51 55.8349 85.3417 55.6738 85.0846 55.6738H80.3388C80.0829 55.6738 79.8283 55.8349 79.7761 56.0306L78.7553 59.8063L77.7349 63.5812C77.7339 63.5832 77.7333 63.5856 77.7333 63.5871L77.6386 63.938C76.4629 68.1227 76.7747 72.1137 83.1629 72.2385C83.2676 72.2409 83.3483 72.2416 83.3483 72.2416H93.3755C93.6324 72.2416 93.8861 72.0808 93.9395 71.8851L96.1025 63.9581L98.2645 56.0303C98.3182 55.8344 98.1521 55.6738 97.8949 55.6738Z" fill="#EAE2E2"/>
<path d="M116.341 68.272C116.598 68.272 116.766 68.4323 116.714 68.6285L116.265 70.3398" fill="#EAE2E2"/>
<path d="M115.817 72.0526L116.265 70.3403L115.816 72.0531C115.816 72.0526 115.817 72.0526 115.817 72.0526Z" fill="#EAE2E2"/>
<path d="M115.254 72.4124C115.255 72.4124 115.256 72.4119 115.256 72.4119C113.895 72.4203 109.806 72.4448 106.733 72.4448C110.473 72.4448 115.254 72.4128 115.254 72.4128V72.4124Z" fill="#EAE2E2"/>
<path d="M103.975 66.0678C103.971 65.8804 104.244 65.5573 104.501 65.5573L103.924 65.55C103.664 67.591 103.975 66.0678 103.975 66.0678Z" fill="#EAE2E2"/>
<path d="M107.154 72.4438C107.125 72.4438 107.095 72.4439 107.065 72.4444C107.094 72.4439 107.125 72.4438 107.154 72.4438Z" fill="#EAE2E2"/>
<path d="M116.341 68.272C116.598 68.272 116.766 68.4323 116.714 68.6285L116.265 70.3398L116.192 70.6188" fill="#EAE2E2"/>
<path d="M107.862 72.4434C107.825 72.4434 107.789 72.4434 107.753 72.4439C107.789 72.4434 107.825 72.4434 107.862 72.4434Z" fill="#EAE2E2"/>
<path d="M108.141 72.4429C108.048 72.4429 107.954 72.4434 107.862 72.4434C107.954 72.4434 108.048 72.4429 108.141 72.4429Z" fill="#EAE2E2"/>
<path d="M109.325 72.4402C108.951 72.4411 108.578 72.4423 108.209 72.4427C108.578 72.4423 108.951 72.4411 109.325 72.4402Z" fill="#EAE2E2"/>
<path d="M115.257 72.4119C114.26 72.4181 111.797 72.4331 109.341 72.4406C111.796 72.4336 114.259 72.4184 115.257 72.4119Z" fill="#EAE2E2"/>
<path d="M115.817 72.0534L116.193 70.6191L115.816 72.0541C115.816 72.0536 115.817 72.0536 115.817 72.0529V72.0534Z" fill="#EAE2E2"/>
<path d="M39.7758 66.1108L40.4938 63.6277L39.6727 66.4661L38.8848 69.3574L39.5755 66.8229C39.6289 66.6267 39.7193 66.3063 39.7758 66.1108Z" fill="#131B28"/>
<path d="M48.3723 55.6321H43.2943C43.0375 55.6321 42.7813 55.7922 42.7238 55.9869L42.2425 57.6442L41.7608 59.3022C41.7043 59.4972 41.8679 59.657 42.1248 59.657H47.242C47.4985 59.657 47.7537 59.4969 47.8087 59.3015L48.2742 57.6439L48.7397 55.9879V55.9874C48.7944 55.7922 48.6292 55.6321 48.3723 55.6321Z" fill="#EAE2E2"/>
<path d="M47.2674 61.1455V61.145L45.7783 66.5184L47.2674 61.1455Z" fill="#EAE2E2"/>
<path d="M32.5161 78.9492C32.5161 78.9492 35.076 78.9755 36.7029 78.9755C35.4672 78.9755 33.4254 78.9575 32.5139 78.949C32.5149 78.949 32.5155 78.9492 32.5161 78.9492Z" fill="#131B28"/>
<path d="M41.2121 61.1448L40.4931 63.6277L41.2121 61.1448Z" fill="#131B28"/>
<path d="M46.9 60.7893H41.7822C41.5257 60.7893 41.2692 60.9494 41.2127 61.1448L40.4938 63.628L39.7758 66.1111C39.7192 66.3063 39.6286 66.6268 39.5752 66.8227L38.8845 69.3574L38.1942 71.8919C38.1404 72.0871 38.0302 72.4032 37.9482 72.593C37.9482 72.593 36.992 74.8117 35.3846 74.7865C35.3163 74.7853 35.2499 74.7848 35.184 74.7836C34.4055 74.7718 33.7931 74.7633 33.7931 74.7633H33.7918C33.536 74.7604 33.2779 74.9166 33.2183 75.1108L32.6872 76.8514L32.1571 78.5906C32.0975 78.785 32.2587 78.9456 32.5133 78.9488C33.4251 78.957 35.4666 78.9749 36.7023 78.9749C40.7173 78.9749 42.834 77.2401 44.1905 72.2484L45.7783 66.519L47.2674 61.1453C47.3221 60.9494 47.1562 60.7895 46.9 60.7893Z" fill="#EAE2E2"/>
<path d="M119.602 72.2416C119.345 72.2416 119.179 72.081 119.233 71.8849L123.083 57.8213" fill="#EAE2E2"/>
<path d="M124.952 71.8842L126.51 65.8813L124.952 71.8842Z" fill="#EAE2E2"/>
<path d="M119.289 72.0632C119.257 71.9653 119.275 71.7251 119.33 71.5289L121.158 64.8533L119.233 71.8852C119.179 72.0811 119.345 72.2417 119.602 72.2417H120.069C119.812 72.2414 119.32 72.1613 119.289 72.0632Z" fill="#EAE2E2"/>
<path d="M124.649 72.1614C124.508 72.2055 124.184 72.2416 123.927 72.2416H124.395C124.651 72.2416 124.903 72.081 124.954 71.8843L125.047 71.5276C124.995 71.7238 124.788 72.1171 124.649 72.1614Z" fill="#EAE2E2"/>
<path d="M125.732 68.8832L126.42 66.2341C126.419 66.2358 126.419 66.238 126.419 66.2392L125.732 68.8832Z" fill="#EAE2E2"/>
<path d="M140.923 58.7634L141.135 59.4469C141.194 59.6426 141.031 59.8012 140.776 59.8017" fill="#EAE2E2"/>
<path d="M125.046 71.5282L125.731 68.8838L125.046 71.5282Z" fill="#EAE2E2"/>
<path d="M140.712 58.0635L140.922 58.7634L140.712 58.0635Z" fill="#EAE2E2"/>
<path d="M126.419 66.2339C126.47 66.038 126.555 65.72 126.607 65.5262L127.342 62.844L126.51 65.882L126.419 66.2339Z" fill="#EAE2E2"/>
<path d="M123.146 57.5906C123.095 57.7797 123.03 58.019 122.986 58.1772L121.159 64.8528L123.083 57.8209L123.146 57.5906Z" fill="#EAE2E2"/>
<path d="M141.134 59.4467L140.922 58.7633L140.712 58.0633L140.605 57.709C140.19 56.4497 138.969 55.7226 136.32 55.7226L132.195 55.7192L128.396 55.7158H128.07H124.121C123.864 55.7158 123.61 55.8757 123.558 56.0718L123.368 56.7684L123.146 57.5911L123.083 57.8216L121.158 64.8536L119.331 71.5292C119.277 71.7256 119.259 71.9656 119.29 72.0635C119.321 72.1616 119.813 72.2417 120.07 72.2417H123.926C124.183 72.2417 124.508 72.2057 124.648 72.1616C124.788 72.1175 124.995 71.7239 125.046 71.528L125.732 68.8833L126.418 66.2394C126.418 66.2384 126.418 66.236 126.419 66.2343L126.511 65.8824L127.342 62.8444L128.076 60.1612C128.131 59.9662 128.383 59.8069 128.64 59.8064L140.774 59.8015C141.03 59.8008 141.192 59.6422 141.134 59.4467Z" fill="#EAE2E2"/>
<path d="M156.755 53.2675C156.498 53.269 156.078 53.2702 155.821 53.2702H151.937C151.68 53.2702 151.351 53.4056 151.206 53.5707L142.618 63.3837C142.473 63.5494 142.307 63.5244 142.25 63.3294L141.618 61.1677C141.561 60.9722 141.304 60.8129 141.048 60.8129H135.526C135.269 60.8129 135.117 60.9701 135.187 61.1626L137.661 67.9218C137.732 68.1143 137.737 68.4311 137.673 68.6249L136.595 71.8963C136.531 72.0903 136.689 72.2492 136.946 72.2492H142.403C142.659 72.2492 142.922 72.0903 142.985 71.8963L144.065 68.6249C144.128 68.4309 144.307 68.141 144.461 67.9809L158.404 53.549C158.559 53.3889 158.475 53.2591 158.218 53.2603L156.755 53.2675Z" fill="#EAE2E2"/>
<path d="M112.89 61.7329V61.7288C112.858 61.946 112.601 62.1054 112.344 62.1054H105.344C105.102 62.1054 104.979 61.977 105.015 61.8186C105.017 61.814 105.017 61.8099 105.021 61.806C105.021 61.806 105.019 61.8065 105.016 61.8075C105.018 61.8012 105.018 61.7956 105.02 61.7893C105.02 61.7893 105.033 61.7508 105.052 61.6963C105.721 60.31 107.083 59.4004 109.642 59.4004C112.524 59.4009 113.086 60.4987 112.89 61.7329ZM110.836 55.4319C101.851 55.4319 99.7219 59.6852 98.5272 63.978C97.3329 68.3533 97.436 72.4444 106.734 72.4444H107.064C107.093 72.4439 107.123 72.4439 107.152 72.4439H107.413H107.508H107.752C107.789 72.4434 107.825 72.4434 107.861 72.4434C107.954 72.4434 108.048 72.4429 108.141 72.4429H108.207C108.575 72.4424 108.949 72.4412 109.322 72.4402H109.341C111.797 72.4327 114.26 72.418 115.258 72.4119C115.512 72.409 115.762 72.2487 115.815 72.0542L116.191 70.6195L116.264 70.34L116.713 68.6289C116.765 68.4325 116.597 68.2722 116.34 68.2722H107.981C104.656 68.2722 103.669 67.5832 104.033 65.5578H117.395L117.394 65.5587C117.397 65.5587 117.4 65.5578 117.403 65.5578C117.615 65.5546 117.812 65.4405 117.889 65.2887C117.904 65.2594 117.917 65.2291 117.921 65.1979L117.92 65.1988C119.904 59.3626 119.335 55.4321 110.835 55.4321L110.836 55.4319Z" fill="#EAE2E2"/>
<path d="M68.3688 61.7108L68.2424 62.0598C68.2424 62.061 68.2421 62.061 68.2421 62.061L67.2331 64.8495L66.2244 67.6379C66.1546 67.8304 65.8875 67.9878 65.6304 67.9878H60.2899C56.2394 67.9878 55.2528 65.5173 56.2394 61.8726C57.2254 58.1451 59.1592 55.8278 63.146 55.5929C68.5945 55.2727 69.6842 58.2611 68.3688 61.7108ZM72.031 67.7735C72.031 67.7735 74.549 63.0055 75.121 60.2516C75.9008 56.565 73.5341 51.219 64.3925 51.219C55.3028 51.219 51.3561 56.3233 49.8499 61.8723C48.3441 67.4613 50.3173 72.3629 59.3548 72.323L66.485 72.3024L73.1484 72.2835C73.4052 72.2816 73.6676 72.1232 73.7328 71.9297L74.8937 68.4766C74.9583 68.2826 74.8014 68.1232 74.5449 68.1222L73.4322 68.1171L72.3202 68.1121C72.1015 68.1106 71.977 68.0009 72.0031 67.8546C72.0081 67.8282 72.0155 67.8011 72.031 67.7735Z" fill="#EAE2E2"/>
<path d="M117.027 64.5823C117.027 64.7143 116.89 64.8213 116.721 64.8213C116.552 64.8213 116.415 64.7143 116.415 64.5823C116.415 64.4506 116.552 64.344 116.721 64.344C116.89 64.344 117.027 64.4506 117.027 64.5823Z" fill="#EAE2E2"/>
<path d="M2.62505 58.3833C0.115212 61.1965 0.427933 64.8565 2.34494 67.8458C2.39059 67.9175 2.43841 67.988 2.48562 68.0587C2.51574 68.1032 2.544 68.149 2.57536 68.1931C2.59307 68.2195 2.61294 68.2454 2.63126 68.2706C2.66387 68.3183 2.69741 68.3636 2.73126 68.4101C2.79088 68.492 2.85206 68.5733 2.91417 68.6547C2.94864 68.6995 2.9828 68.7441 3.01851 68.7889C3.08777 68.8758 3.15857 68.9623 3.23093 69.048C3.26105 69.0846 3.29055 69.1214 3.32161 69.1568C3.4216 69.273 3.52377 69.3893 3.62905 69.5033C3.63184 69.5062 3.63495 69.5091 3.63774 69.512C3.65451 69.5305 3.67284 69.5484 3.68961 69.5668C3.7806 69.6649 3.875 69.7617 3.96972 69.8576C4.00481 69.8925 4.04021 69.9274 4.07531 69.9625C4.16008 70.0458 4.24642 70.1284 4.3343 70.2108C4.36722 70.2415 4.40014 70.2725 4.43337 70.3028C4.55106 70.4108 4.67156 70.5188 4.79453 70.6244C4.79671 70.6263 4.7995 70.6285 4.80167 70.6302C4.80664 70.6348 4.81099 70.6375 4.81534 70.6419C4.93521 70.7441 5.05788 70.8441 5.1824 70.9439C5.22091 70.9746 5.26035 71.0056 5.29979 71.0364C5.39606 71.1119 5.49388 71.1858 5.59264 71.2604C5.6327 71.2899 5.67245 71.3205 5.71251 71.349C5.84449 71.4459 5.97772 71.5411 6.11374 71.6339C6.11622 71.6358 6.11777 71.6372 6.12026 71.638C6.14324 71.654 6.16715 71.6695 6.19013 71.6842C6.31 71.7654 6.43205 71.8458 6.55471 71.9247C6.60471 71.9562 6.65533 71.9874 6.70564 72.0187C6.80594 72.0814 6.90749 72.1432 7.00966 72.204C7.0637 72.2362 7.11773 72.2684 7.17208 72.3004C7.28481 72.3648 7.39847 72.4287 7.51306 72.4909C7.55498 72.5147 7.59535 72.5372 7.63728 72.5597C7.64877 72.566 7.65933 72.5728 7.67113 72.5789C7.78013 72.637 7.89099 72.6937 8.00217 72.7496C8.04999 72.7746 8.09751 72.8 8.14564 72.8242C8.31613 72.9082 8.48911 72.9913 8.66426 73.072C8.71177 73.093 8.7599 73.1139 8.80742 73.1349C8.93598 73.1928 9.06548 73.2497 9.19653 73.3052C9.26734 73.335 9.34032 73.3631 9.41174 73.3914C9.5046 73.4294 9.59652 73.4677 9.6903 73.5043C9.71173 73.5127 9.73378 73.5207 9.7549 73.5287C9.79247 73.543 9.83067 73.5568 9.86887 73.5718C10.0148 73.6263 10.1617 73.6794 10.3102 73.7312C10.3418 73.7421 10.3723 73.753 10.4036 73.7636C10.5735 73.8215 10.7452 73.8777 10.9185 73.9308C10.9601 73.9438 11.0021 73.9562 11.044 73.9693C11.2042 74.0172 11.3666 74.0649 11.5297 74.1095C11.5505 74.1151 11.5704 74.1204 11.5909 74.1257C11.77 74.1746 11.9508 74.2199 12.1328 74.264C12.1762 74.2739 12.2197 74.2848 12.2635 74.2948C12.4489 74.3384 12.6318 74.3902 12.8231 74.4178C24.9605 76.1439 28.4862 68.7295 28.4862 68.7295C25.5251 71.738 20.2691 72.5316 15.2892 71.6481C15.1003 71.615 14.9174 71.5692 14.7333 71.5266C14.6864 71.5157 14.6407 71.5048 14.5945 71.4936C14.4147 71.4505 14.2367 71.4055 14.0594 71.3578C14.0352 71.3512 14.0106 71.344 13.9858 71.3372C13.8271 71.2936 13.6703 71.2478 13.5138 71.2008C13.4697 71.187 13.4256 71.1742 13.3815 71.1604C13.21 71.1076 13.0399 71.0526 12.8719 70.995C12.8371 70.9836 12.8042 70.9715 12.77 70.9596C12.6256 70.9087 12.4827 70.8574 12.3399 70.8039C12.2989 70.7884 12.2576 70.7731 12.216 70.7574C12.1045 70.715 11.9936 70.6699 11.8837 70.6256C11.8098 70.5954 11.7349 70.5665 11.662 70.535C11.5272 70.4789 11.3952 70.4203 11.2635 70.3607C11.2188 70.3411 11.1738 70.3224 11.1288 70.3023C10.9539 70.2219 10.7809 70.1386 10.6098 70.0543C10.5626 70.0308 10.5164 70.0059 10.4698 69.9816C10.3459 69.9192 10.2223 69.8557 10.1008 69.7901C10.0605 69.7693 10.0213 69.746 9.98191 69.7249C9.86452 69.6603 9.74837 69.5946 9.63285 69.5283C9.58068 69.4982 9.52913 69.467 9.4782 69.437C9.37261 69.3738 9.26734 69.3105 9.16331 69.2449C9.11641 69.2159 9.06921 69.1865 9.02294 69.1572C8.89065 69.0722 8.7599 68.9872 8.63072 68.8998C8.61736 68.8904 8.60246 68.8814 8.58786 68.8717C8.44843 68.7758 8.31085 68.6777 8.17546 68.5791C8.13602 68.5498 8.09782 68.5215 8.05931 68.492C7.95869 68.4176 7.85994 68.3425 7.76305 68.2655C7.72423 68.2352 7.6851 68.2052 7.6469 68.1752C7.52331 68.0764 7.40219 67.9766 7.28325 67.8751C7.27735 67.87 7.27114 67.8657 7.26524 67.8601C7.13947 67.753 7.01681 67.6433 6.89631 67.5326C6.86371 67.5024 6.83203 67.4731 6.79973 67.4433C6.70998 67.359 6.62117 67.2738 6.53453 67.1873C6.50192 67.1565 6.46931 67.1246 6.43701 67.0928C6.33267 66.987 6.2305 66.8819 6.1305 66.7746C3.36571 63.8335 2.37227 59.7768 4.58212 56.4456" fill="#EAE2E2"/>
<path d="M10.4157 56.0132C8.60058 58.0502 8.69934 60.7768 10.1151 62.9311C10.3527 63.2922 10.6194 63.6426 10.9179 63.9761C11.1896 64.28 11.4912 64.6416 11.852 64.8858C11.9831 64.9981 12.1197 65.1078 12.2594 65.2154C12.2948 65.2437 12.3309 65.2706 12.3669 65.2984C12.5023 65.4006 12.6402 65.5016 12.7827 65.5995C12.7886 65.6034 12.7939 65.6077 12.7998 65.6109C12.8014 65.6123 12.8029 65.6128 12.8038 65.6143C12.9616 65.7218 13.1243 65.8257 13.2898 65.9276C13.3265 65.9494 13.3628 65.9724 13.4001 65.9947C13.5659 66.0938 13.7349 66.1914 13.9085 66.2841C13.9137 66.287 13.9181 66.2897 13.923 66.2931C13.9994 66.334 14.0777 66.3725 14.155 66.412C14.1923 66.4309 14.2277 66.451 14.265 66.4687C14.3886 66.5304 14.514 66.5908 14.6417 66.6486C14.6597 66.6574 14.6774 66.6644 14.6948 66.6726C14.8047 66.722 14.9162 66.7707 15.028 66.8179C15.0668 66.8351 15.1065 66.8501 15.1463 66.8661C15.2236 66.8976 15.3006 66.9296 15.3792 66.9603C15.3907 66.9647 15.4028 66.9688 15.4143 66.9727C15.5742 67.0342 15.7357 67.0933 15.9003 67.1492C15.9354 67.1613 15.9717 67.1722 16.0077 67.1839C16.1391 67.2275 16.2723 67.2698 16.4059 67.31C16.4627 67.3268 16.5198 67.3427 16.5767 67.359C16.6978 67.3941 16.8198 67.4261 16.9425 67.4583C16.9981 67.4721 17.0524 67.4861 17.108 67.4994C17.2825 67.5416 17.4549 67.5951 17.6369 67.6186C27.0079 68.8295 29.1718 63.2025 29.1718 63.2025C27.2213 65.3926 23.4447 66.4382 19.4144 65.6222C19.2356 65.5857 19.0592 65.5457 18.884 65.5026C18.8303 65.4898 18.7775 65.4762 18.7244 65.4624C18.5999 65.4309 18.476 65.3973 18.353 65.3626C18.2968 65.3469 18.2406 65.3306 18.1853 65.3142C18.0505 65.2737 17.9176 65.2321 17.7856 65.1882C17.7496 65.1761 17.7133 65.1655 17.6779 65.1529C17.5123 65.0969 17.3496 65.0374 17.1888 64.9761C17.1062 64.9444 17.0251 64.9109 16.9437 64.8787C16.8968 64.8596 16.8493 64.8407 16.8021 64.8218C16.6978 64.7775 16.5941 64.732 16.4916 64.6855C16.4674 64.6746 16.4422 64.6644 16.4177 64.6528C16.2907 64.5949 16.1655 64.5353 16.0419 64.474C16.0037 64.4549 15.9671 64.4343 15.9289 64.4149C15.8472 64.3735 15.7655 64.3316 15.6854 64.2892C15.5127 64.1965 15.3444 64.0991 15.1789 64.0003C15.1407 63.9768 15.1022 63.9541 15.0649 63.9306C13.3007 62.8444 11.9026 61.3597 11.2377 59.6768C10.5409 57.9311 10.6909 55.9716 11.898 54.3813" fill="#EAE2E2"/>
<path d="M16.968 54.2421C15.8981 55.47 15.7929 56.9953 16.5354 58.3515C17.3183 59.7911 18.9226 60.9204 20.7952 61.4556C20.8725 61.4782 20.9495 61.498 21.0278 61.5188C21.0619 61.5271 21.0958 61.536 21.1302 61.544C21.2405 61.5712 21.3501 61.6026 21.4641 61.6194C26.6384 62.3992 28.0421 59.5484 28.4157 59.1289C27.1862 60.5094 25.1201 60.8407 22.5852 60.3609C22.3848 60.3227 22.1647 60.2665 21.9718 60.2132C21.7243 60.1444 21.4805 60.066 21.2433 59.9773C20.7933 59.8085 20.3641 59.6039 19.9663 59.3697C17.6981 58.0275 16.2885 55.4666 17.7689 53.3811" fill="#EAE2E2"/>
</svg>
