<svg width="137" height="140" viewBox="0 0 137 140" fill="none" xmlns="http://www.w3.org/2000/svg">
<path d="M68.5 124.688C98.0559 124.688 122.016 100.203 122.016 70C122.016 39.7969 98.0559 15.3125 68.5 15.3125C38.9441 15.3125 14.9844 39.7969 14.9844 70C14.9844 100.203 38.9441 124.688 68.5 124.688Z" fill="white"/>
<path d="M51.8031 48.7812H61.1148V75.5781C61.1148 87.6094 55.4422 91.875 46.4516 91.875C44.2039 91.875 41.4211 91.5469 39.6016 90.8906L40.6719 83.125C41.9562 83.5625 43.6687 83.8906 45.4883 83.8906C49.4484 83.8906 51.9102 82.0312 51.9102 75.5781L51.8031 48.7812Z" fill="#323330"/>
<path d="M69.3563 81.375C71.818 82.6875 75.7781 84 79.7383 84C84.0195 84 86.2672 82.1406 86.2672 79.2969C86.2672 76.6719 84.3406 75.1406 79.3102 73.3906C72.4602 70.875 67.8578 66.9375 67.8578 60.7031C67.8578 53.5938 73.8516 48.125 83.5914 48.125C88.3008 48.125 91.7258 49.1094 94.1875 50.3125L92.0469 57.9688C90.4414 57.2031 87.4445 56 83.4844 56C79.4172 56 77.4906 57.9688 77.4906 60.0469C77.4906 62.7813 79.7383 63.9844 85.1969 66.0625C92.475 68.7969 95.9 72.7344 95.9 78.75C95.9 85.8594 90.6555 91.875 79.2031 91.875C74.4938 91.875 69.7844 90.5625 67.4297 89.25L69.3563 81.375Z" fill="#323330"/>
</svg>
