<svg width="169" height="159" viewBox="0 0 169 159" fill="none" xmlns="http://www.w3.org/2000/svg">
<path d="M83.4437 128.194C82.9156 128.194 82.3875 127.945 81.8594 127.697L76.8422 124.964C76.05 124.467 76.3141 124.467 76.8422 124.219C77.8984 123.97 78.1625 123.722 79.2188 123.225H79.4828L83.4437 125.461C83.7078 125.461 83.7078 125.461 83.9719 125.461L99.2875 117.263C99.2875 117.263 99.5516 117.014 99.5516 116.766V100.12C99.5516 99.8719 99.5516 99.8719 99.2875 99.6235L83.9719 91.4251C83.9719 91.4251 83.7078 91.4251 83.4437 91.4251L68.1281 99.6235C67.8641 99.6235 67.8641 99.8719 67.8641 100.12V116.766C67.8641 117.014 67.8641 117.014 68.1281 117.263L72.3531 119.499C74.7297 120.492 76.05 119.25 76.05 118.008V101.611C76.05 101.363 76.3141 101.114 76.5781 101.114H78.4266C78.6906 101.114 78.9547 101.363 78.9547 101.611V118.008C78.9547 120.989 77.3703 122.48 74.4656 122.48C73.6734 122.48 72.8812 122.48 71.0328 121.486L67.0719 119.25C66.0156 118.753 65.4875 117.759 65.4875 116.517V99.8719C65.4875 98.8782 66.0156 97.8844 67.0719 97.1391L81.8594 89.4376C82.9156 88.9407 84.2359 88.9407 85.0281 89.4376L100.344 97.636C101.4 98.1329 101.928 99.1266 101.928 100.369V116.766C101.928 117.759 101.4 118.753 100.344 119.499L85.0281 127.697C84.7641 127.945 84.2359 128.194 83.4437 128.194ZM95.8547 111.797C95.8547 108.567 93.7422 107.822 88.9891 107.325C84.2359 106.828 83.7078 106.331 83.7078 105.338C83.7078 104.344 84.2359 103.35 87.6688 103.35C90.8375 103.35 91.8938 104.095 92.4219 106.083C92.4219 106.331 92.6859 106.331 92.95 106.331H95.0625C95.3266 106.331 95.3266 106.331 95.3266 106.331C95.3266 106.331 95.5906 106.083 95.3266 106.083C95.0625 102.605 92.6859 101.114 87.6688 101.114C83.1797 101.114 80.8031 102.853 80.8031 105.834C80.8031 109.064 83.4437 109.809 87.6688 110.306C92.6859 110.803 92.95 111.549 92.95 112.294C92.95 113.784 91.6297 114.53 88.4609 114.53C84.5 114.53 83.4437 113.536 83.1797 111.797C83.1797 111.549 82.9156 111.549 82.6516 111.549H80.5391C80.275 111.549 80.0109 111.797 80.0109 112.045C80.0109 114.53 81.3313 117.263 88.1969 117.263C93.2141 116.766 95.8547 115.027 95.8547 111.797ZM110.378 99.3751C110.378 100.866 109.058 102.108 107.473 102.108C105.889 102.108 104.569 100.866 104.569 99.3751C104.569 97.8844 105.889 96.6423 107.473 96.6423C108.794 96.6423 110.378 97.8844 110.378 99.3751ZM109.85 99.3751C109.85 98.1329 108.794 97.1391 107.473 97.1391C106.153 97.1391 105.097 98.1329 105.097 99.3751C105.097 100.617 106.153 101.611 107.473 101.611C108.794 101.611 109.85 100.617 109.85 99.3751ZM108.53 100.866H107.737C107.737 100.617 107.473 99.8719 107.473 99.8719C107.473 99.6235 107.473 99.6235 107.209 99.6235H106.681V100.866H106.153V97.636H107.209C107.737 97.636 108.266 97.636 108.266 98.3813C108.266 98.8782 107.737 99.1266 107.737 99.1266C108.266 99.1266 108.266 99.3751 108.266 99.8719C108.53 100.369 108.53 100.866 108.53 100.866ZM107.737 98.6298C107.737 98.1329 107.473 98.1329 107.209 98.1329H106.681V98.8782H107.209C107.737 99.1266 107.737 98.8782 107.737 98.6298ZM36.1766 63.3516C36.1766 62.6063 35.9125 62.1094 35.1203 61.861L19.0125 53.1657C18.7484 52.9172 18.4844 52.9172 18.2203 52.9172H17.9563C17.6922 52.9172 17.4281 52.9172 17.1641 53.1657L1.05625 61.861C0.264062 62.1094 0 62.6063 0 63.3516V86.9532C0 87.2016 0.264062 87.6985 0.528125 87.6985C0.792188 87.9469 1.32031 87.9469 1.58438 87.6985L11.0906 82.4813C11.6187 82.2329 12.1469 81.4876 12.1469 80.9907V70.0594C12.1469 69.3141 12.4109 68.8173 13.2031 68.5688L17.4281 66.3329C17.6922 66.0844 17.9562 66.0844 18.4844 66.0844C18.7484 66.0844 19.2766 66.0844 19.5406 66.3329L23.7656 68.5688C24.2938 68.8173 24.8219 69.5626 24.8219 70.0594V80.9907C24.8219 81.736 25.0859 82.2329 25.8781 82.4813L35.3844 87.6985C35.6484 87.9469 36.1766 87.9469 36.4406 87.6985C36.7047 87.4501 36.9688 87.2016 36.9688 86.9532L36.1766 63.3516ZM124.902 37.5141V81.2391C124.902 81.9844 124.638 82.4813 123.845 82.7298L107.737 91.4251C107.209 91.6735 106.417 91.6735 105.889 91.4251L89.7812 82.7298C89.2531 82.4813 88.725 81.736 88.725 81.2391V63.6001C88.725 62.8548 88.9891 62.3579 89.7812 62.1094L105.889 53.4141C106.417 53.1657 107.209 53.1657 107.737 53.4141L111.698 55.6501C112.227 55.8985 112.755 55.6501 112.755 55.1532V31.8001C112.755 31.0547 113.547 30.5579 114.339 31.0547L124.109 36.0235C124.373 36.2719 124.902 37.0172 124.902 37.5141ZM112.755 69.5626C112.755 69.3141 112.755 69.3141 112.491 69.0657L106.945 66.0844C106.681 66.0844 106.681 66.0844 106.417 66.0844L100.872 69.0657C100.608 69.0657 100.608 69.3141 100.608 69.5626V75.5251C100.608 75.7735 100.608 75.7735 100.872 76.0219L106.417 79.0032C106.681 79.0032 106.681 79.0032 106.945 79.0032L112.491 76.0219C112.755 76.0219 112.755 75.7735 112.755 75.5251V69.5626ZM167.944 69.3141C168.472 69.0657 169 68.3204 169 67.8235V63.6001C169 62.8548 168.736 62.3579 167.944 62.1094L151.836 53.4141C151.308 53.1657 150.516 53.1657 149.988 53.4141L133.88 62.1094C133.352 62.3579 132.823 63.1032 132.823 63.6001V81.2391C132.823 81.9844 133.088 82.4813 133.88 82.7298L149.988 91.4251C150.516 91.6735 151.308 91.6735 151.836 91.4251L161.606 86.2079C162.398 85.9594 162.398 84.9657 161.606 84.7173L145.234 76.0219C144.97 75.7735 144.706 75.5251 144.706 75.2766V69.5626C144.706 69.3141 144.97 68.8173 145.234 68.8173L150.252 66.0844C150.516 65.836 151.044 65.836 151.308 66.0844L156.325 68.8173C156.589 69.0657 156.853 69.3141 156.853 69.5626V73.786C156.853 74.5313 157.645 75.0282 158.438 74.5313L167.944 69.3141ZM147.611 70.3079L147.347 70.5563V74.0344C147.347 74.0344 147.347 74.2829 147.611 74.2829L150.78 76.0219H151.044L154.213 74.2829L154.477 74.0344V70.5563C154.477 70.5563 154.477 70.3079 154.213 70.3079L151.044 68.5688H150.78L147.611 70.3079ZM80.5391 80.9907V63.6001C80.5391 62.8548 80.0109 62.3579 79.4828 62.1094L63.375 53.1657C62.8469 52.9172 62.0547 52.9172 61.5266 53.1657L45.1547 62.1094C44.6266 62.3579 44.0984 63.1032 44.0984 63.6001V80.9907C44.0984 81.736 44.6266 82.2329 45.1547 82.4813L61.2625 91.1766C61.7906 91.4251 62.5828 91.4251 63.1109 91.1766L79.2188 82.4813C79.7469 82.2329 80.0109 81.736 80.275 81.2391C80.5391 81.4876 80.5391 81.2391 80.5391 80.9907Z" fill="#EAE2E2"/>
</svg>
